<?xml version="1.0" encoding="iso-8859-1"?>
<!-- Generator: Adobe Illustrator 19.0.0, SVG Export Plug-In . SVG Version: 6.00 Build 0)  -->
<svg version="1.1" id="Capa_1" xmlns="http://www.w3.org/2000/svg" xmlns:xlink="http://www.w3.org/1999/xlink" x="0px" y="0px"
	 viewBox="0 0 512 512" style="enable-background:new 0 0 512 512;" xml:space="preserve">
<path style="fill:#EDE6F5;" d="M512,486.703H0l255.979-271.631c0.01-0.021,0.021-0.031,0.021-0.031L512,486.703z"/>
<path style="fill:#CEC1E8;" d="M157.823,486.703H0l255.979-271.631C254.186,218.085,124.361,435.764,157.823,486.703z"/>
<g>
	<path style="fill:#F9D366;" d="M171.01,68.443c-4.319,0-7.821-3.502-7.821-7.821V39.897c0-4.319,3.502-7.821,7.821-7.821
		s7.821,3.502,7.821,7.821v20.725C178.831,64.941,175.329,68.443,171.01,68.443z"/>
	<path style="fill:#F9D366;" d="M171.01,124.239c-4.319,0-7.821-3.502-7.821-7.821V95.694c0-4.319,3.502-7.821,7.821-7.821
		s7.821,3.502,7.821,7.821v20.725C178.831,120.738,175.329,124.239,171.01,124.239z"/>
	<path style="fill:#F9D366;" d="M209.27,85.979h-20.725c-4.319,0-7.821-3.502-7.821-7.821c0-4.319,3.502-7.821,7.821-7.821h20.725
		c4.319,0,7.821,3.502,7.821,7.821C217.091,82.477,213.59,85.979,209.27,85.979z"/>
	<path style="fill:#F9D366;" d="M153.474,85.979h-20.725c-4.319,0-7.821-3.502-7.821-7.821c0-4.319,3.502-7.821,7.821-7.821h20.725
		c4.319,0,7.821,3.502,7.821,7.821C161.295,82.477,157.793,85.979,153.474,85.979z"/>
	<path style="fill:#F9D366;" d="M305.524,67.748c-3.275,0-6.255-2.122-7.365-5.194c-1.128-3.121-0.071-6.777,2.559-8.804
		c5.588-4.307,13.882,0.73,12.47,7.699C312.459,65.052,309.212,67.748,305.524,67.748z"/>
	<path style="fill:#F9D366;" d="M473.038,221.569c-3.275,0-6.255-2.122-7.365-5.194c-1.128-3.121-0.071-6.777,2.559-8.804
		c5.588-4.307,13.882,0.73,12.471,7.699C479.973,218.873,476.725,221.569,473.038,221.569z"/>
</g>
<g>
	<path style="fill:#CEC1E8;" d="M391.407,406.93c-3.274,0-6.258-2.108-7.365-5.186c-1.12-3.112-0.089-6.734,2.519-8.774
		c5.653-4.423,14.088,0.809,12.467,7.856C398.218,404.347,395.038,406.93,391.407,406.93z"/>
	<path style="fill:#CEC1E8;" d="M416.433,456.983c-3.202,0-6.139-2.024-7.295-5.006c-1.242-3.201-0.177-6.98,2.573-9.045
		c5.753-4.321,14.093,1.099,12.302,8.133C423.137,454.495,419.983,456.983,416.433,456.983z"/>
	<path style="fill:#CEC1E8;" d="M330.926,369.39c-3.075,0-5.9-1.851-7.148-4.653c-1.408-3.161-0.507-7.021,2.182-9.209
		c5.467-4.451,13.925,0.363,12.663,7.383C337.961,366.606,334.697,369.39,330.926,369.39z"/>
	<path style="fill:#CEC1E8;" d="M207.879,323.508c-7.05,0-10.462-9.024-5.179-13.68c5.267-4.642,13.829-0.193,12.939,6.831
		C215.15,320.516,211.778,323.508,207.879,323.508z"/>
</g>
<path style="fill:#EDE6F5;" d="M76.49,459.068c-3.346,0-6.373-2.198-7.426-5.367c-1.038-3.126,0.062-6.703,2.702-8.683
	c5.606-4.206,13.811,0.825,12.388,7.763C83.414,456.39,80.186,459.068,76.49,459.068z"/>
<g>
	<path style="fill:#CEC1E8;" d="M364.295,454.897c-3.068,0-5.903-1.857-7.148-4.653c-1.413-3.172-0.5-7.044,2.21-9.227
		c5.393-4.348,13.736,0.257,12.671,7.21C371.448,452.007,368.132,454.897,364.295,454.897z"/>
	<path style="fill:#CEC1E8;" d="M170.34,454.897c-7.232,0-10.582-9.471-4.846-13.96c5.746-4.496,14.237,0.962,12.424,8.063
		C177.044,452.422,173.878,454.897,170.34,454.897z"/>
</g>
<g>
	<path style="fill:#EDE6F5;" d="M124.458,454.897c-3.075,0-5.9-1.851-7.148-4.653c-1.408-3.161-0.506-7.021,2.183-9.209
		c5.468-4.451,13.925,0.363,12.663,7.383C131.492,452.114,128.229,454.897,124.458,454.897z"/>
	<path style="fill:#EDE6F5;" d="M122.372,415.272c-7.08,0-10.522-9.141-5.084-13.766c2.585-2.198,6.392-2.471,9.26-0.654
		c2.717,1.722,4.145,5.05,3.476,8.209C129.267,412.63,126.03,415.272,122.372,415.272z"/>
</g>
<g>
	<path style="fill:#F9D366;" d="M63.091,116.226c-3.13,0-6.032-1.932-7.226-4.828c-1.317-3.194-0.333-7.036,2.413-9.153
		c5.36-4.135,13.444,0.309,12.571,7.122C70.353,113.235,67.003,116.226,63.091,116.226z"/>
	<path style="fill:#F9D366;" d="M312.002,253.453c-3.13,0-6.032-1.932-7.226-4.828c-1.317-3.194-0.333-7.036,2.413-9.153
		c5.36-4.135,13.444,0.309,12.571,7.122C319.264,250.461,315.913,253.453,312.002,253.453z"/>
	<path style="fill:#F9D366;" d="M161.099,249.331l19.942-4.043c9.415-1.909,9.415-15.364,0-17.272l-19.942-4.043
		c-19.652-3.984-35.011-19.343-38.995-38.995l-4.043-19.942c-1.909-9.415-15.364-9.415-17.272,0l-4.043,19.942
		c-3.984,19.652-19.343,35.011-38.995,38.995l-19.942,4.043c-9.415,1.909-9.415,15.364,0,17.272l19.942,4.043
		c19.652,3.984,35.011,19.343,38.995,38.995l4.043,19.942c1.909,9.415,15.364,9.415,17.272,0l4.043-19.942
		C126.088,268.673,141.447,253.314,161.099,249.331z"/>
	<path style="fill:#F9D366;" d="M463.85,132.973l23.504-4.765c11.096-2.25,11.096-18.109,0-20.358l-23.504-4.765
		c-23.162-4.696-41.264-22.798-45.961-45.961l-4.765-23.504c-2.25-11.096-18.109-11.096-20.358,0L388,57.123
		c-4.696,23.162-22.798,41.264-45.961,45.961l-23.504,4.765c-11.096,2.249-11.096,18.109,0,20.358l23.504,4.765
		c23.162,4.696,41.264,22.798,45.961,45.961l4.765,23.504c2.25,11.096,18.109,11.096,20.358,0l4.765-23.504
		C422.585,155.772,440.687,137.67,463.85,132.973z"/>
</g>
<g>
</g>
<g>
</g>
<g>
</g>
<g>
</g>
<g>
</g>
<g>
</g>
<g>
</g>
<g>
</g>
<g>
</g>
<g>
</g>
<g>
</g>
<g>
</g>
<g>
</g>
<g>
</g>
<g>
</g>
</svg>
